<svg style="width:25px;heigth:25px" viewBox="0 0 50 50" fill="none" xmlns="http://www.w3.org/2000/svg">
<path fill-rule="evenodd" clip-rule="evenodd" d="M33.4178 0.048953C33.4542 -0.00297235 33.5257 -0.0155916 33.5776 0.020767L37.1278 2.50666C37.1798 2.54302 37.1924 2.61458 37.1561 2.6665L32.2147 9.72337C34.617 10.4908 36.2536 11.3187 36.2536 11.3187C36.2536 11.3187 32.2532 18.1997 25.4682 18.1997C18.6831 18.1997 13.8617 11.7864 13.8617 11.7864C13.8617 11.7864 15.5713 10.6954 18.1055 9.75968L12.6855 3.30055C12.6448 3.25198 12.6512 3.17959 12.6997 3.13885L16.0197 0.352993C16.0684 0.312248 16.1407 0.318581 16.1814 0.367141L23.0439 8.54555C23.6315 8.47908 24.2302 8.44193 24.8343 8.44193C25.7025 8.44193 26.5697 8.50794 27.4163 8.61995L33.4178 0.048953ZM34.7602 18.5256C36.5708 17.2324 39.3106 13.8572 39.3106 13.8572C39.3106 13.8572 46.3091 19.4031 46.3091 31.1625C46.3091 42.9218 34.2099 49.9992 34.2099 49.9992C34.2099 49.9992 28.4291 44.1612 27.01 36.7607C25.5909 29.3603 29.1092 21.1429 29.1092 21.1429C29.1092 21.1429 32.9494 19.8187 34.7602 18.5256ZM15.2599 18.5256C13.4492 17.2324 10.7094 13.8572 10.7094 13.8572C10.7094 13.8572 3.71094 19.4031 3.71094 31.1625C3.71094 42.9218 15.8102 49.9992 15.8102 49.9992C15.8102 49.9992 21.5909 44.1612 23.0101 36.7607C24.4291 29.3603 20.9108 21.1429 20.9108 21.1429C20.9108 21.1429 17.0706 19.8187 15.2599 18.5256Z" fill="#FA0000"/>
</svg>
