<svg style="width:25px;heigth:25px" viewBox="0 0 50 50" fill="none" xmlns="http://www.w3.org/2000/svg">
<path fill-rule="evenodd" clip-rule="evenodd" d="M27.4123 24.8907C27.7512 24.6841 28.0387 24.2511 28.2705 23.7698C31.3218 25.0169 33.466 27.9638 33.466 31.4004C33.466 35.9658 29.6818 39.6669 25.0139 39.6669C23.0977 39.6669 21.3304 39.0432 19.9127 37.9921C19.4477 37.7719 19.065 37.5604 18.752 37.3872C18.2663 37.1188 17.9479 36.9427 17.7484 36.9702C17.1655 37.0506 17.3348 37.5869 17.4886 38.0741C17.593 38.4051 17.6903 38.7134 17.5397 38.8405C17.382 38.9737 16.8715 38.4869 16.2749 37.9182C15.4628 37.1438 14.4913 36.2176 14.0332 36.4958C13.671 36.7158 14.0227 37.3126 14.4531 38.0431L14.4851 38.0973C14.6669 38.4061 14.8776 38.7205 15.0699 39.0074C15.4608 39.5905 15.7757 40.0604 15.6182 40.1399C15.4277 40.236 14.101 39.3405 12.9829 38.0973C12.5514 37.6175 12.1334 37.0974 11.7449 36.6141V36.614C10.8946 35.556 10.1862 34.6746 9.78858 34.779C9.31021 34.9046 9.67208 35.8913 10.2038 36.8408C10.4524 37.2849 10.7449 37.737 10.9981 38.1285V38.1286C11.392 38.7374 11.6909 39.1994 11.5825 39.2563C11.4362 39.3327 10.149 38.0775 9.27475 36.4958C8.75546 35.5563 8.31942 34.518 7.96642 33.6774C7.58359 32.7658 7.29843 32.0868 7.11066 32.0185C6.45825 31.7811 6.45825 33.1112 6.71991 35.0311C6.75404 35.2815 6.80487 35.5442 6.86746 35.8117C9.40498 44.022 17.2 50 26.4226 50C37.7035 50 46.8484 41.0559 46.8484 30.0227C46.8484 19.5215 38.5644 10.9128 28.0391 10.1068C28.0523 9.61215 28.3105 8.63115 28.3105 8.63115C28.3105 8.63115 30.1687 4.13547 30.2669 3.17479C30.2733 3.11104 30.2811 3.04175 30.2894 2.96796C30.4051 1.92997 30.6204 0 28.9601 0C28.0733 0 27.661 0.659633 27.1895 1.41405C27.0084 1.70367 26.8186 2.00728 26.5898 2.29287C24.9426 4.34996 22.1727 6.91883 20.6021 8.28741C17.2823 11.1801 14.0253 13.5574 12.1257 14.9439L12.1256 14.944C11.2616 15.5746 10.6785 16.0003 10.498 16.1762C9.13809 17.502 4.2619 26.2975 4.2619 26.2975C4.2619 26.2975 2.68499 29.1193 3.24549 29.6917C3.80599 30.264 5.15763 30.1328 5.15763 30.1328C5.15763 30.1328 23.3159 25.9671 24.9416 25.6386C25.3793 25.5501 25.6883 25.499 25.9255 25.4599C26.5695 25.3535 26.6852 25.3344 27.4123 24.8907ZM14.5737 19.5375C13.599 20.464 11.9825 22.6754 11.9825 22.6754C11.9825 22.6754 14.9868 22.8604 16.6414 21.2877C18.2961 19.7148 17.917 17.0345 17.917 17.0345C17.917 17.0345 15.5483 18.611 14.5737 19.5375Z" fill="#CEA231"/>
</svg>
