<svg style="width:25px;heigth:25px" viewBox="0 0 50 50" fill="none" xmlns="http://www.w3.org/2000/svg">
<path fill-rule="evenodd" clip-rule="evenodd" d="M34.4002 38.6127C35.018 36.3538 33.8189 31.71 33.8189 31.71C33.8189 31.71 32.9491 35.4931 31.5902 36.8913C30.4308 38.084 29.0104 38.9112 26.9733 39.1286C28.6388 38.3196 29.7842 36.6328 29.7842 34.6831C29.7842 31.9462 27.5272 29.7274 24.743 29.7274C21.9588 29.7274 19.7017 31.9462 19.7017 34.6831C19.7017 35.4306 19.8701 36.1395 20.1716 36.775C18.4302 35.3877 18.1564 33.1635 18.1564 33.1635C18.1564 33.1635 16.2118 41.2367 21.5698 45.0344C26.9277 48.832 37.4237 45.5678 37.4237 45.5678C37.4237 45.5678 22.4033 56.1364 11.2731 44.6338C1.68525 34.725 8.77063 21.68 8.77063 21.68C8.77063 21.68 8.46463 22.8901 8.46463 24.2949C8.46463 25.6997 9.22628 26.7686 9.22628 26.7686C9.22628 26.7686 11.4983 21.9796 13.2664 20.032C14.9399 18.1889 17.0376 16.6939 18.8495 15.4027C20.2443 14.4088 21.4696 13.5355 22.2015 12.7171C26.2324 8.20983 23.7609 0 23.7609 0C23.7609 0 28.3048 4.00586 29.5734 9.17947C30.0569 11.1516 29.7458 13.3954 29.4677 15.402C29.0161 18.6594 28.6512 21.2915 31.9134 21.1207C37.1851 20.8446 32.6041 12.7171 32.6041 12.7171C32.6041 12.7171 44.5623 19.0022 43.669 29.9946C42.7755 40.987 30.5981 43.486 30.5981 43.486C30.5981 43.486 33.7823 40.8716 34.4002 38.6127Z" fill="#C03131"/>
</svg>
