<svg style="width:25px;heigth:25px" viewBox="0 0 50 50" fill="none" xmlns="http://www.w3.org/2000/svg">
<path fill-rule="evenodd" clip-rule="evenodd" d="M17.4523 46.6536C24.7769 46.6536 31.0476 42.5828 33.6363 36.8121C33.668 36.7417 23.2429 39.5214 23.5753 38.5388C23.7237 38.1 30.1144 35.7654 34.7703 33.0424C37.4464 31.4772 38.6787 28.1641 38.6787 28.1641C38.6787 28.1641 34.1702 30.353 31.891 30.9083C27.298 32.0274 23.255 31.9069 23.255 31.7903C23.255 31.5382 29.9684 30.2626 39.2992 24.5766C43.6882 21.9021 44.8803 17.2952 44.8803 17.2952C44.8803 17.2952 40.055 20.1694 37.138 21.1184C30.2204 23.3687 23.9077 24.0468 23.9077 23.7423C23.9077 23.0903 29.4631 21.5627 35.3531 18.7087C38.4156 17.2248 41.0679 15.2861 44.1414 13.1302C49.1705 9.60273 49.9999 3.32031 49.9999 3.32031C49.9999 3.32031 45.0397 6.51954 42.6191 7.58197C32.631 11.9659 23.8114 14.2655 17.4523 14.7634C7.85313 15.5149 0 22.2125 0 30.9083C0 39.6042 7.81366 46.6536 17.4523 46.6536Z" fill="#515680"/>
</svg>
