<svg style="width:25px;heigth:25px" viewBox="0 0 50 50" fill="none" xmlns="http://www.w3.org/2000/svg">
<g clip-path="url(#clip0_78_460)">
<path fill-rule="evenodd" clip-rule="evenodd" d="M36.0305 49.8269C31.5204 50.0577 26.357 50.0577 24.6023 49.8269C10.915 48.0262 0 38.0188 0 24.4922C0 10.9655 11.1929 0 25 0C38.8071 0 50 10.9655 50 24.4922C50 30.7833 47.5788 36.5204 43.5996 40.8581C42.519 42.0359 44.0017 42.8621 45.508 43.7016C46.9854 44.5249 48.4855 45.3609 47.6137 46.5539C46.6529 47.8685 41.4445 49.5497 36.0305 49.8269ZM21.4844 21.4307C21.4844 23.5441 19.7354 25.2575 17.5781 25.2575C15.4208 25.2575 13.6719 23.5441 13.6719 21.4307C13.6719 20.0132 14.4585 18.7758 15.6273 18.1144C15.6946 19.9572 17.2099 21.4306 19.0692 21.4306L21.4844 21.4307ZM33.5914 18.1144C33.5241 19.9572 32.0089 21.4306 30.1495 21.4306H27.7344C27.7344 23.544 29.4833 25.2575 31.6406 25.2575C33.7979 25.2575 35.5469 23.5441 35.5469 21.4307C35.5469 20.0132 34.7603 18.7758 33.5914 18.1144Z" fill="#979797"/>
</g>
<defs>
<clipPath id="clip0_78_460">
<rect width="50" height="50" fill="white"/>
</clipPath>
</defs>
</svg>
