<svg width="28" height="28" viewBox="0 0 28 28" fill="none" xmlns="http://www.w3.org/2000/svg">
<path d="M15.1102 14.4148L23.8995 23.5481" stroke="black" stroke-width="2" stroke-linecap="round"/>
<g clip-path="url(#clip0_12_889)">
<path d="M15.9748 15.9771C15.0247 16.9272 13.5582 17.0458 12.4746 16.3384L9.31384 19.4992C12.1412 21.8797 16.3644 21.7427 19.0195 19.0876C21.6746 16.4325 21.814 12.207 19.4311 9.38195L16.3362 12.4769C17.0459 13.5628 16.9249 15.027 15.9748 15.9771Z" fill="white"/>
<path d="M20.0492 17.7939C21.6616 15.1918 21.4557 11.7828 19.431 9.38195L18.1846 10.6284C20.0677 12.7608 20.7179 15.5134 20.0492 17.7939Z" fill="#DFDFDF"/>
<path d="M15.1619 12.8359C15.1595 12.8382 15.1595 12.8382 15.1619 12.8359C15.0158 12.6945 14.8532 12.5837 14.6789 12.5035C14.0713 12.2251 13.3322 12.3373 12.8336 12.8359C12.3351 13.3345 12.2252 14.0759 12.5012 14.6812C12.5814 14.8555 12.6922 15.018 12.836 15.1618L12.8383 15.1594C12.9821 15.3032 13.1446 15.414 13.3189 15.4942C13.9266 15.7726 14.6657 15.6603 15.1642 15.1618C15.6628 14.6632 15.7727 13.9217 15.4966 13.3165C15.4188 13.1445 15.3056 12.9796 15.1619 12.8359Z" fill="white"/>
<path d="M12.0252 12.0229C12.9754 11.0728 14.4419 10.9542 15.5255 11.6615L18.6862 8.50076C15.8565 6.11788 11.6333 6.25486 8.97586 8.91235C6.31838 11.5698 6.18374 15.7907 8.56427 18.618L11.6615 15.5207C10.9542 14.4371 11.0751 12.973 12.0252 12.0229Z" fill="#FF1C1C"/>
<path d="M17.3693 9.81303L18.6816 8.50075C16.2382 6.44313 12.7492 6.2654 10.1332 7.97186C12.4277 7.26558 15.2157 7.91343 17.3693 9.81303Z" fill="#DF1818"/>
<path d="M8.97586 8.91237C11.6333 6.25489 15.8565 6.1179 18.6815 8.50077L15.5208 11.6615C14.4372 10.9542 12.9706 11.0728 12.0205 12.0229C11.0704 12.973 10.9518 14.4395 11.6592 15.5231L8.56427 18.618C6.18374 15.7907 6.32073 11.5675 8.97586 8.91237ZM14.6788 12.5035C14.8531 12.5837 15.0157 12.6945 15.1594 12.8382L15.1618 12.8359C15.3055 12.9796 15.4163 13.1422 15.4965 13.3165C15.7749 13.9241 15.6627 14.6632 15.1641 15.1618C14.6655 15.6603 13.9241 15.7702 13.3188 15.4942C13.1445 15.414 12.982 15.3032 12.8382 15.1594L12.8359 15.1618C12.6921 15.018 12.5813 14.8555 12.5011 14.6812C12.2227 14.0735 12.335 13.3345 12.8335 12.8359C13.3321 12.3373 14.0735 12.2274 14.6788 12.5035ZM19.0218 19.09C16.3643 21.7475 12.1411 21.8845 9.31613 19.5016L12.4769 16.3408C13.5605 17.0482 15.027 16.9296 15.9771 15.9795C16.9272 15.0294 17.0458 13.5629 16.3385 12.4792L19.4357 9.38198C21.8139 12.207 21.6793 16.4325 19.0218 19.09ZM7.97206 7.97441C4.65138 11.2951 4.65682 16.6861 7.98421 20.0134C11.3116 23.3408 16.7026 23.3463 20.0232 20.0256C23.3439 16.7049 23.3432 11.314 20.0134 7.98421C16.6837 4.65446 11.2951 4.65138 7.97206 7.97441Z" fill="black"/>
</g>
<defs>
<clipPath id="clip0_12_889">
<rect width="19.799" height="19.799" fill="white" transform="translate(0 14) rotate(-45)"/>
</clipPath>
</defs>
</svg>
